<svg width="24" height="32" fill="none" xmlns="http://www.w3.org/2000/svg"><path fill="#E5E5E5" d="M0 0h24v32H0z"/><g clip-path="url(#clip0)"><path fill="#fff" d="M-980-5369H940V292H-980z"/><path d="M23.479 6.115L17.55.187A.638.638 0 0017.1 0H.972a.637.637 0 00-.637.637v30.726c0 .352.285.637.637.637h22.056a.638.638 0 00.637-.637V6.566a.638.638 0 00-.186-.451zm-5.742-3.939l3.752 3.752h-3.752V2.176zm4.654 28.55H1.61V1.274h14.852v5.29c0 .353.286.638.638.638h5.29v23.522z" fill="#3DC7C9"/><path d="M4.829 11.092h10.55a.637.637 0 000-1.275H4.829a.637.637 0 100 1.275zm14.343 2.932H4.829a.637.637 0 000 1.275h14.343a.637.637 0 000-1.275zm0 4.207H4.829a.637.637 0 100 1.275h14.343a.637.637 0 000-1.275zm0 4.208H4.829a.637.637 0 100 1.274h14.343a.637.637 0 000-1.274zm-1.403-11.347h1.402a.638.638 0 000-1.275H17.77a.637.637 0 000 1.275z" fill="#3DC7C9"/></g><defs><clipPath id="clip0"><path fill="#fff" transform="translate(-980 -5369)" d="M0 0h1920v5661H0z"/></clipPath></defs></svg>